<?xml version="1.0" standalone="no"?>
<!DOCTYPE svg PUBLIC "-//W3C//DTD SVG 20010904//EN"
 "http://www.w3.org/TR/2001/REC-SVG-20010904/DTD/svg10.dtd">
<svg version="1.0" xmlns="http://www.w3.org/2000/svg"
 width="200.000000pt" height="200.000000pt" viewBox="0 0 200.000000 200.000000"
 preserveAspectRatio="xMidYMid meet">
<metadata>
Created by potrace 1.11, written by Peter Selinger 2001-2013
</metadata>
<g transform="translate(0.000000,200.000000) scale(0.100000,-0.100000)"
fill="#000000" stroke="none">
<path d="M670 1714 c-47 -30 -94 -62 -105 -71 -11 -9 -21 -16 -23 -14 -6 7
-82 -40 -82 -50 0 -6 -4 -8 -9 -4 -5 3 -16 -1 -23 -9 -8 -7 -24 -17 -36 -20
-12 -4 -22 -13 -22 -21 0 -7 -8 -12 -17 -11 -15 1 -19 -8 -21 -47 -2 -38 0
-47 10 -41 10 5 11 4 1 -7 -16 -16 -17 -65 -3 -74 7 -4 7 -11 2 -18 -5 -7 -8
-73 -6 -147 1 -74 4 -206 6 -292 2 -87 6 -158 10 -158 4 0 4 -10 0 -22 -4 -13
-7 -43 -6 -68 1 -25 2 -72 3 -105 1 -60 1 -60 44 -85 23 -13 44 -25 47 -25 3
0 10 -3 15 -7 12 -7 70 -40 140 -78 28 -15 83 -46 124 -69 73 -41 101 -49 101
-32 0 5 13 13 28 19 16 5 36 17 45 27 9 9 17 14 17 10 0 -3 20 8 44 25 25 16
48 30 51 30 4 0 27 14 52 30 24 17 48 30 54 30 5 0 12 7 15 15 4 8 10 12 15 9
5 -3 9 0 9 6 0 6 4 9 8 6 5 -3 19 4 30 15 12 11 22 16 22 12 0 -4 14 7 31 25
17 17 51 41 75 54 24 12 44 26 44 31 0 6 3 7 7 4 3 -4 21 4 39 18 18 14 35 25
38 25 17 0 174 105 169 113 -3 6 -1 7 5 3 6 -4 21 -2 33 4 20 11 20 18 17 166
-2 85 -7 154 -11 154 -5 0 -5 5 -1 12 8 13 12 98 4 98 -7 0 -4 65 3 77 8 13
-3 22 -83 65 -66 36 -263 146 -335 188 -99 57 -145 80 -145 73 0 -4 -5 0 -11
10 -5 9 -14 17 -20 17 -5 0 -27 11 -49 25 -22 14 -40 22 -40 18 0 -5 -4 -3 -8
3 -11 17 -178 104 -186 97 -3 -3 -6 -1 -6 5 0 21 -23 12 -110 -44z m95 -103
c3 -5 2 -12 -3 -15 -5 -3 -9 1 -9 9 0 17 3 19 12 6z m240 -40 c3 -5 2 -12 -3
-15 -5 -3 -9 1 -9 9 0 17 3 19 12 6z m-465 -7 c0 -8 -19 -13 -24 -6 -3 5 1 9
9 9 8 0 15 -2 15 -3z m240 0 c0 -8 -19 -13 -24 -6 -3 5 1 9 9 9 8 0 15 -2 15
-3z m-95 -43 c3 -5 2 -12 -3 -15 -5 -3 -9 1 -9 9 0 17 3 19 12 6z m320 -70 c3
-5 2 -12 -3 -15 -5 -3 -9 1 -9 9 0 17 3 19 12 6z m-560 -10 c3 -5 2 -12 -3
-15 -5 -3 -9 1 -9 9 0 17 3 19 12 6z m80 0 c3 -5 2 -12 -3 -15 -5 -3 -9 1 -9
9 0 17 3 19 12 6z m80 -30 c3 -5 2 -12 -3 -15 -5 -3 -9 1 -9 9 0 17 3 19 12 6z
m80 -80 c3 -5 2 -12 -3 -15 -5 -3 -9 1 -9 9 0 17 3 19 12 6z m-238 -16 c0 -8
-4 -12 -9 -9 -5 3 -6 10 -3 15 9 13 12 11 12 -6z m1043 9 c0 -8 -19 -13 -24
-6 -3 5 1 9 9 9 8 0 15 -2 15 -3z m-156 -82 c3 -5 -1 -9 -9 -9 -8 0 -12 4 -9
9 3 4 7 8 9 8 2 0 6 -4 9 -8z m151 -111 c3 -5 2 -12 -3 -15 -5 -3 -9 1 -9 9 0
17 3 19 12 6z m-115 -47 c0 -8 -19 -13 -24 -6 -3 5 1 9 9 9 8 0 15 -2 15 -3z
m115 -123 c3 -5 2 -12 -3 -15 -5 -3 -9 1 -9 9 0 17 3 19 12 6z m80 -30 c3 -5
2 -12 -3 -15 -5 -3 -9 1 -9 9 0 17 3 19 12 6z m-225 -87 c0 -8 -19 -13 -24 -6
-3 5 1 9 9 9 8 0 15 -2 15 -3z m-690 -78 c0 -2 -7 -7 -16 -10 -8 -3 -12 -2 -9
4 6 10 25 14 25 6z m924 -4 c3 -5 -1 -9 -9 -9 -8 0 -12 4 -9 9 3 4 7 8 9 8 2
0 6 -4 9 -8z m-1131 -37 c-3 -9 -8 -14 -10 -11 -3 3 -2 9 2 15 9 16 15 13 8
-4z m128 -2 c13 -16 12 -17 -3 -4 -10 7 -18 15 -18 17 0 8 8 3 21 -13z m194
-32 c3 -5 2 -12 -3 -15 -5 -3 -9 1 -9 9 0 17 3 19 12 6z m562 -6 c0 -8 -4 -12
-9 -9 -5 3 -6 10 -3 15 9 13 12 11 12 -6z m-603 -3 c3 -5 -1 -9 -9 -9 -8 0
-12 4 -9 9 3 4 7 8 9 8 2 0 6 -4 9 -8z m650 0 c3 -5 -1 -9 -9 -9 -8 0 -12 4
-9 9 3 4 7 8 9 8 2 0 6 -4 9 -8z m-47 -87 c0 -8 -4 -12 -9 -9 -5 3 -6 10 -3
15 9 13 12 11 12 -6z m-802 -64 c3 -5 2 -12 -3 -15 -5 -3 -9 1 -9 9 0 17 3 19
12 6z m-80 -40 c3 -5 2 -12 -3 -15 -5 -3 -9 1 -9 9 0 17 3 19 12 6z m399 -49
c3 -5 -1 -9 -9 -9 -8 0 -12 4 -9 9 3 4 7 8 9 8 2 0 6 -4 9 -8z m90 0 c3 -5 -1
-9 -9 -9 -8 0 -12 4 -9 9 3 4 7 8 9 8 2 0 6 -4 9 -8z m156 -2 c0 -5 -2 -10 -4
-10 -3 0 -8 5 -11 10 -3 6 -1 10 4 10 6 0 11 -4 11 -10z m-326 -50 c-6 -6 -10
-3 -10 10 0 13 4 16 10 10 7 -7 7 -13 0 -20z m86 -26 c0 -8 -19 -13 -24 -6 -3
5 1 9 9 9 8 0 15 -2 15 -3z m120 2 c0 -2 -7 -7 -16 -10 -8 -3 -12 -2 -9 4 6
10 25 14 25 6z m-239 -43 c13 -16 12 -17 -3 -4 -10 7 -18 15 -18 17 0 8 8 3
21 -13z"/>
</g>
</svg>
